<?xml version="1.0" encoding="utf-8"?>
<svg version="1.1" xmlns:xlink="http://www.w3.org/1999/xlink" width="40px" height="29px" xmlns="http://www.w3.org/2000/svg">
  <g transform="matrix(1 0 0 1 -1679 -10 )">
    <path d="M 26.4583333333333 16.9715909090909  C 26.5972222222222 16.8068181818182  26.6666666666667 16.6420454545455  26.6666666666667 16.4772727272727  C 26.6666666666667 16.2850378787879  26.6041666666667 16.1271306818182  26.4791666666667 16.0035511363636  C 26.3541666666667 15.8799715909091  26.1944444444445 15.8181818181818  26 15.8181818181818  L 21.3333333333333 15.8181818181818  L 21.3333333333333 8.56818181818182  C 21.3333333333333 8.38967803030303  21.2673611111111 8.23520359848485  21.1354166666667 8.10475852272727  C 21.0034722222222 7.9743134469697  20.8472222222222 7.90909090909091  20.6666666666667 7.90909090909091  L 16.6666666666667 7.90909090909091  C 16.4861111111111 7.90909090909091  16.3298611111111 7.9743134469697  16.1979166666667 8.10475852272727  C 16.0659722222222 8.23520359848485  16 8.38967803030303  16 8.56818181818182  L 16 15.8181818181818  L 11.3333333333333 15.8181818181818  C 11.1527777777778 15.8181818181818  10.9965277777778 15.8834043560606  10.8645833333333 16.0138494318182  C 10.7326388888889 16.1442945075758  10.6666666666667 16.2987689393939  10.6666666666667 16.4772727272727  C 10.6666666666667 16.6695075757576  10.7291666666667 16.8274147727273  10.8541666666667 16.9509943181818  L 18.1875 24.2009943181818  C 18.3125 24.3245738636364  18.4722222222222 24.3863636363636  18.6666666666667 24.3863636363636  C 18.8611111111111 24.3863636363636  19.0208333333333 24.3245738636364  19.1458333333333 24.2009943181818  L 26.4583333333333 16.9715909090909  Z M 38.2604166666667 16.1786221590909  C 39.4201388888889 17.6135179924242  40 19.250946969697  40 21.0909090909091  C 40 23.2741477272727  39.21875 25.1381392045455  37.65625 26.6828835227273  C 36.09375 28.2276278409091  34.2083333333333 29  32 29  L 9.33333333333333 29  C 6.76388888888889 29  4.56597222222222 28.0971827651515  2.73958333333333 26.2915482954545  C 0.913194444444444 24.4859138257576  0 22.3129734848485  0 19.7727272727273  C 0 17.9876893939394  0.486111111111111 16.3399621212121  1.45833333333333 14.8295454545455  C 2.43055555555556 13.3191287878788  3.73611111111111 12.1863162878788  5.375 11.4311079545455  C 5.34722222222222 11.0191761363636  5.33333333333333 10.7239583333333  5.33333333333333 10.5454545454545  C 5.33333333333333 7.6344696969697  6.375 5.14914772727273  8.45833333333333 3.08948863636364  C 10.5416666666667 1.02982954545455  13.0555555555556 0  16 0  C 18.1666666666667 0  20.1493055555556 0.597301136363637  21.9479166666667 1.79190340909091  C 23.7465277777778 2.98650568181818  25.0555555555556 4.57244318181818  25.875 6.54971590909091  C 26.8611111111111 5.69839015151515  28.0138888888889 5.27272727272727  29.3333333333333 5.27272727272727  C 30.8055555555556 5.27272727272727  32.0625 5.78764204545455  33.1041666666667 6.81747159090909  C 34.1458333333333 7.84730113636364  34.6666666666667 9.08996212121212  34.6666666666667 10.5454545454545  C 34.6666666666667 11.5890151515151  34.3819444444444 12.5364583333333  33.8125 13.3877840909091  C 35.6180555555556 13.813446969697  37.1006944444444 14.7437263257576  38.2604166666667 16.1786221590909  Z " fill-rule="nonzero" fill="#7f7f7f" stroke="none" transform="matrix(1 0 0 1 1679 10 )" />
  </g>
</svg>