<?xml version="1.0" encoding="utf-8"?>
<svg version="1.1" xmlns:xlink="http://www.w3.org/1999/xlink" width="237px" height="46px" xmlns="http://www.w3.org/2000/svg">
  <defs>
    <mask fill="white" id="clip22">
      <path d="M 0 45  L 0 0  L 236 0  L 236 45  L 130.754098360656 45  L 0 45  Z " fill-rule="evenodd" />
    </mask>
  </defs>
  <g transform="matrix(1 0 0 1 -1684 -47 )">
    <path d="M 0 45  L 0 0  L 236 0  L 236 45  L 130.754098360656 45  L 0 45  Z M 2.63638898353224 44.4972987107671  L 233.363611016468 0.502701289232856  L 144.272913044666 17.4903343770765  L 2.63638898353224 44.4972987107671  Z " fill-rule="nonzero" fill="#d7d7d7" stroke="none" transform="matrix(1 0 0 1 1684 47 )" />
    <path d="M 0 45  L 0 0  L 236 0  L 236 45  L 130.754098360656 45  L 0 45  Z " stroke-width="2" stroke="#797979" fill="none" transform="matrix(1 0 0 1 1684 47 )" mask="url(#clip22)" />
    <path d="M 233.363611016468 0.502701289232856  L 144.272913044666 17.4903343770765  L 2.63638898353224 44.4972987107671  M 2.63638898353224 0.502701289232856  L 233.363611016468 44.4972987107671  " stroke-width="1" stroke="#797979" fill="none" transform="matrix(1 0 0 1 1684 47 )" mask="url(#clip22)" />
  </g>
</svg>