<?xml version="1.0" encoding="utf-8"?>
<svg version="1.1" xmlns:xlink="http://www.w3.org/1999/xlink" width="25px" height="25px" viewBox="350 396  25 25" xmlns="http://www.w3.org/2000/svg">
  <path d="M 362.5 396  C 369.5 396  375 401.5  375 408.5  C 375 415.5  369.5 421  362.5 421  C 355.5 421  350 415.5  350 408.5  C 350 401.5  355.5 396  362.5 396  Z " fill-rule="nonzero" fill="#ffffff" stroke="none" />
  <path d="M 362.5 396.5  C 369.22 396.5  374.5 401.78  374.5 408.5  C 374.5 415.22  369.22 420.5  362.5 420.5  C 355.78 420.5  350.5 415.22  350.5 408.5  C 350.5 401.78  355.78 396.5  362.5 396.5  Z " stroke-width="1" stroke="#797979" fill="none" />
  <path d="M 362.5 414.75  C 359 414.75  356.25 412  356.25 408.5  C 356.25 405  359 402.25  362.5 402.25  C 366 402.25  368.75 405  368.75 408.5  C 368.75 412  366 414.75  362.5 414.75  " fill-rule="nonzero" fill="#797979" stroke="none" />
</svg>