<?xml version="1.0" encoding="utf-8"?>
<svg version="1.1" xmlns:xlink="http://www.w3.org/1999/xlink" width="30px" height="30px" xmlns="http://www.w3.org/2000/svg">
  <g transform="matrix(1 0 0 1 -205 -109 )">
    <path d="M 217.722103967661 120.864745084376  L 220 113.85410196625  L 222.277896032339 120.864745084376  L 229.649322438664 120.864745084376  L 223.685713203163 125.197560814373  L 225.963609235502 132.208203932499  L 220 127.875388202502  L 214.036390764498 132.208203932499  L 216.314286796837 125.197560814373  L 210.350677561336 120.864745084376  L 217.722103967661 120.864745084376  Z " fill-rule="nonzero" fill="#ffffff" stroke="none" />
    <path d="M 216.632290175653 119.364745084376  L 220 109  L 223.367709824347 119.364745084376  L 234.265847744427 119.364745084376  L 225.44906896004 125.770509831248  L 228.816778784387 136.135254915624  L 220 129.729490168752  L 211.183221215613 136.135254915624  L 214.55093103996 125.770509831248  L 205.734152255573 119.364745084376  L 216.632290175653 119.364745084376  Z M 220 115.472135955  L 218.085375231664 121.364745084376  L 211.889519329923 121.364745084376  L 216.90207204913 125.006577808748  L 214.987447280794 130.899186938124  L 220 127.257354213752  L 225.012552719206 130.899186938124  L 223.09792795087 125.006577808748  L 228.110480670077 121.364745084376  L 221.914624768336 121.364745084376  L 220 115.472135955  Z " fill-rule="nonzero" fill="#797979" stroke="none" />
  </g>
</svg>