<?xml version="1.0" encoding="utf-8"?>
<svg version="1.1" xmlns:xlink="http://www.w3.org/1999/xlink" width="128px" height="22px" xmlns="http://www.w3.org/2000/svg">
  <g transform="matrix(1 0 0 1 -242 -856 )">
    <path d="M 127.333333333333 7.5812743823147  C 127.777777777778 7.75292587776333  128 7.97225834416992  128 8.23927178153446  L 128 13.7321196358908  C 128 13.9991330732553  127.777777777778 14.2184655396619  127.333333333333 14.3901170351105  C 126.888888888889 14.5617685305592  126.320987654321 14.6475942782835  125.62962962963 14.6475942782835  L 33.1851851851852 14.6475942782835  L 33.1851851851852 21.0559167750325  C 33.1851851851852 21.4564369310793  32.7160493827161 21.7329865626355  31.7777777777778 21.8855656697009  C 30.8395061728395 22.0381447767664  29.9753086419753 21.9904638058084  29.1851851851852 21.742522756827  L 0.740740740740741 11.7295188556567  C 0.246913580246914 11.5387949718249  0 11.3194625054183  0 11.0715214564369  C 0 10.8045080190724  0.246913580246914 10.5756393584742  0.740740740740741 10.3849154746424  L 29.1851851851852 0.257477243172952  C 29.9753086419753 -0.00953619419159635  30.8395061728395 -0.0667533593411402  31.7777777777778 0.0858257477243183  C 32.7160493827161 0.257477243172952  33.1851851851852 0.534026874729085  33.1851851851852 0.915474642392717  L 33.1851851851852 7.32379713914174  L 125.62962962963 7.32379713914174  C 126.320987654321 7.32379713914174  126.888888888889 7.40962288686606  127.333333333333 7.5812743823147  Z " fill-rule="nonzero" fill="#d9001b" stroke="none" transform="matrix(1 0 0 1 242 856 )" />
  </g>
</svg>