<?xml version="1.0" encoding="utf-8"?>
<svg version="1.1" xmlns:xlink="http://www.w3.org/1999/xlink" width="129px" height="22px" xmlns="http://www.w3.org/2000/svg">
  <g transform="matrix(1 0 0 1 -514 -849 )">
    <path d="M 128.328125 7.5812743823147  C 128.776041666667 7.75292587776333  129 7.97225834416992  129 8.23927178153446  L 129 13.7321196358908  C 129 13.9991330732553  128.776041666667 14.2184655396619  128.328125 14.3901170351105  C 127.880208333333 14.5617685305592  127.30787037037 14.6475942782835  126.611111111111 14.6475942782835  L 33.4444444444444 14.6475942782835  L 33.4444444444444 21.0559167750325  C 33.4444444444444 21.4564369310793  32.9716435185185 21.7329865626355  32.0260416666667 21.8855656697009  C 31.0804398148148 22.0381447767664  30.2094907407407 21.9904638058084  29.4131944444444 21.742522756827  L 0.746527777777778 11.7295188556567  C 0.248842592592593 11.5387949718249  0 11.3194625054183  0 11.0715214564369  C 0 10.8045080190724  0.248842592592593 10.5756393584742  0.746527777777778 10.3849154746424  L 29.4131944444444 0.257477243172952  C 30.2094907407407 -0.00953619419159635  31.0804398148148 -0.0667533593411402  32.0260416666667 0.0858257477243183  C 32.9716435185185 0.257477243172952  33.4444444444444 0.534026874729085  33.4444444444444 0.915474642392717  L 33.4444444444444 7.32379713914174  L 126.611111111111 7.32379713914174  C 127.30787037037 7.32379713914174  127.880208333333 7.40962288686606  128.328125 7.5812743823147  Z " fill-rule="nonzero" fill="#d9001b" stroke="none" transform="matrix(1 0 0 1 514 849 )" />
  </g>
</svg>