<?xml version="1.0" encoding="utf-8"?>
<svg version="1.1" xmlns:xlink="http://www.w3.org/1999/xlink" width="74px" height="26px" xmlns="http://www.w3.org/2000/svg">
  <g transform="matrix(1 0 0 1 -505 -860 )">
    <path d="M 73.6145833333333 8.95968790637191  C 73.8715277777778 9.16254876462939  74 9.42175986129172  74 9.73732119635891  L 74 16.2288686605982  C 74 16.5444299956654  73.8715277777778 16.8036410923277  73.6145833333333 17.0065019505852  C 73.3576388888889 17.2093628088427  73.0293209876543 17.3107932379714  72.6296296296296 17  L 19.1851851851852 17  L 19.1851851851852 24.8842652795839  C 19.1851851851852 25.3576072821847  18.9139660493827 25.6844386649328  18.3715277777778 25.8647594278283  C 17.8290895061728 26.0450801907239  17.329475308642 25.988729952319  16.8726851851852 25.6957087126138  L 0.428240740740741 13.8621586475943  C 0.142746913580247 13.6367576939749  0 13.3775465973125  0 13.0845253576073  C 0 12.7689640225401  0.142746913580247 12.4984828781968  0.428240740740741 12.2730819245774  L 16.8726851851852 0.304291287386216  C 17.329475308642 -0.0112700476809775  17.8290895061728 -0.0788903337668021  18.3715277777778 0.10143042912874  C 18.9139660493827 0.304291287386216  19.1851851851852 0.631122670134374  19.1851851851852 1.08192457737321  L 19.1851851851852 9  L 72.6296296296296 9  C 73.0293209876543 8.6553966189857  73.3576388888889 8.75682704811444  73.6145833333333 8.95968790637191  Z " fill-rule="nonzero" fill="#d9001b" stroke="none" transform="matrix(1 0 0 1 505 860 )" />
  </g>
</svg>