<?xml version="1.0" encoding="utf-8"?>
<svg version="1.1" xmlns:xlink="http://www.w3.org/1999/xlink" width="30px" height="16px" xmlns="http://www.w3.org/2000/svg">
  <g transform="matrix(1 0 0 1 -51 -613 )">
    <path d="M 28.6875 8.91477272727273  C 29.5625 9.70643939393939  30 10.6136363636364  30 11.6363636363636  C 30 12.8409090909091  29.4140625 13.8693181818182  28.2421875 14.7215909090909  C 27.0703125 15.5738636363636  25.65625 16  24 16  L 7 16  C 5.07291666666667 16  3.42447916666667 15.5018939393939  2.0546875 14.5056818181818  C 0.684895833333333 13.5094696969697  0 12.3106060606061  0 10.9090909090909  C 0 9.90909090909091  0.369791666666667 8.99431818181818  1.109375 8.16477272727273  C 1.84895833333333 7.33522727272727  2.82291666666667 6.71590909090909  4.03125 6.30681818181818  C 4.01041666666667 6.09469696969697  4 5.93181818181818  4 5.81818181818182  C 4 4.21212121212121  4.78125 2.84090909090909  6.34375 1.70454545454546  C 7.90625 0.568181818181818  9.79166666666667 0  12 0  C 13.6458333333333 0  15.1380208333333 0.333333333333332  16.4765625 1  C 17.8151041666667 1.66666666666666  18.7916666666667 2.53787878787879  19.40625 3.61363636363636  C 20.1354166666667 3.14393939393939  21 2.90909090909091  22 2.90909090909091  C 23.1041666666667 2.90909090909091  24.046875 3.19318181818182  24.828125 3.76136363636364  C 25.609375 4.32954545454546  26 5.01515151515151  26 5.81818181818182  C 26 6.38636363636364  25.7864583333333 6.90909090909091  25.359375 7.38636363636364  C 26.703125 7.61363636363636  27.8125 8.12310606060606  28.6875 8.91477272727273  Z " fill-rule="nonzero" fill="#000000" stroke="none" transform="matrix(1 0 0 1 51 613 )" />
  </g>
</svg>