<?xml version="1.0" encoding="utf-8"?>
<svg version="1.1" xmlns:xlink="http://www.w3.org/1999/xlink" width="86px" height="86px" xmlns="http://www.w3.org/2000/svg">
  <defs>
    <filter x="155px" y="261px" width="86px" height="86px" filterUnits="userSpaceOnUse" id="filter1">
      <feOffset dx="1" dy="1" in="SourceAlpha" result="shadowOffsetInner" />
      <feGaussianBlur stdDeviation="2.5" in="shadowOffsetInner" result="shadowGaussian" />
      <feComposite in2="shadowGaussian" operator="atop" in="SourceAlpha" result="shadowComposite" />
      <feColorMatrix type="matrix" values="0 0 0 0 0  0 0 0 0 0  0 0 0 0 0  0 0 0 0.698039215686274 0  " in="shadowComposite" />
    </filter>
    <g id="widget2">
      <path d="M 197 265  C 218.28 265  235 281.72  235 303  C 235 324.28  218.28 341  197 341  C 175.72 341  159 324.28  159 303  C 159 281.72  175.72 265  197 265  Z " fill-rule="nonzero" fill="#009dd9" stroke="none" />
      <path d="M 197 265.5  C 218 265.5  234.5 282  234.5 303  C 234.5 324  218 340.5  197 340.5  C 176 340.5  159.5 324  159.5 303  C 159.5 282  176 265.5  197 265.5  Z " stroke-width="1" stroke="#ffffff" fill="none" />
    </g>
  </defs>
  <g transform="matrix(1 0 0 1 -155 -261 )">
    <use xlink:href="#widget2" filter="url(#filter1)" />
    <use xlink:href="#widget2" />
  </g>
</svg>