<?xml version="1.0" encoding="utf-8"?>
<svg version="1.1" xmlns:xlink="http://www.w3.org/1999/xlink" width="40px" height="40px" xmlns="http://www.w3.org/2000/svg">
  <g transform="matrix(1 0 0 1 -622 -1120 )">
    <path d="M 642 1121  C 652.64 1121  661 1129.36  661 1140  C 661 1150.64  652.64 1159  642 1159  C 631.36 1159  623 1150.64  623 1140  C 623 1129.36  631.36 1121  642 1121  Z " fill-rule="nonzero" fill="#f2f2f2" stroke="none" fill-opacity="0" />
    <path d="M 642 1121  C 652.64 1121  661 1129.36  661 1140  C 661 1150.64  652.64 1159  642 1159  C 631.36 1159  623 1150.64  623 1140  C 623 1129.36  631.36 1121  642 1121  Z " stroke-width="2" stroke="#d9001b" fill="none" />
  </g>
</svg>