<?xml version="1.0" encoding="utf-8"?>
<svg version="1.1" xmlns:xlink="http://www.w3.org/1999/xlink" width="52px" height="52px" xmlns="http://www.w3.org/2000/svg">
  <g transform="matrix(1 0 0 1 -611 -1479 )">
    <path d="M 637 1480  C 651 1480  662 1491  662 1505  C 662 1519  651 1530  637 1530  C 623 1530  612 1519  612 1505  C 612 1491  623 1480  637 1480  Z " fill-rule="nonzero" fill="#ffffff" stroke="none" fill-opacity="0.0313725490196078" />
    <path d="M 637 1480  C 651 1480  662 1491  662 1505  C 662 1519  651 1530  637 1530  C 623 1530  612 1519  612 1505  C 612 1491  623 1480  637 1480  Z " stroke-width="2" stroke="#d9001b" fill="none" />
  </g>
</svg>