<?xml version="1.0" encoding="utf-8"?>
<svg version="1.1" xmlns:xlink="http://www.w3.org/1999/xlink" width="107px" height="36px" xmlns="http://www.w3.org/2000/svg">
  <g transform="matrix(1 0 0 1 -1039 -1426 )">
    <path d="M 0 26.52631578947368  L 0 9.473684210526315  C 0 4.168421052631666  2.377777777777827 0  5.404040404040404 0  L 42.96212121212121 0  L 52.41919191919192 0  L 72.68434343434343 0  L 101.5959595959596 0  C 104.62222222222218 0  107 4.168421052631666  107 9.473684210526315  L 107 26.52631578947368  C 107 31.831578947368335  104.62222222222218 36  101.5959595959596 36  L 69.98232323232324 36  L 65.92929292929293 36  L 57.823232323232325 36  L 48.36616161616162 36  L 42.96212121212121 36  L 5.404040404040404 36  C 2.377777777777827 36  0 31.831578947368335  0 26.52631578947368  Z " fill-rule="nonzero" fill="#3b71e6" stroke="none" transform="matrix(1 0 0 1 1039 1426 )" />
  </g>
</svg>