<?xml version="1.0" encoding="utf-8"?>
<svg version="1.1" xmlns:xlink="http://www.w3.org/1999/xlink" width="107px" height="36px" xmlns="http://www.w3.org/2000/svg">
  <g transform="matrix(1 0 0 1 -1039 -1792 )">
    <path d="M 0 26.5263157894737  L 0 9.47368421052632  C 0 4.16842105263167  2.37777777777783 0  5.4040404040404 0  L 42.9621212121212 0  L 52.4191919191919 0  L 72.6843434343434 0  L 101.59595959596 0  C 104.622222222222 0  107 4.16842105263167  107 9.47368421052632  L 107 26.5263157894737  C 107 31.8315789473683  104.622222222222 36  101.59595959596 36  L 69.9823232323232 36  L 65.9292929292929 36  L 57.8232323232323 36  L 48.3661616161616 36  L 42.9621212121212 36  L 5.4040404040404 36  C 2.37777777777783 36  0 31.8315789473683  0 26.5263157894737  Z " fill-rule="nonzero" fill="#3b71e6" stroke="none" transform="matrix(1 0 0 1 1039 1792 )" />
  </g>
</svg>