<?xml version="1.0" encoding="utf-8"?>
<svg version="1.1" xmlns:xlink="http://www.w3.org/1999/xlink" width="29px" height="23px" xmlns="http://www.w3.org/2000/svg">
  <g transform="matrix(1 0 0 1 -223 -872 )">
    <path d="M 5.4375 11.5  L 9.0625 11.5  L 9.0625 19.1666666666667  L 5.4375 19.1666666666667  L 5.4375 11.5  Z M 11 3.83333333333333  L 14 3.83333333333333  L 14 19.1666666666667  L 11 19.1666666666667  L 11 3.83333333333333  Z M 2 21  L 29 21  L 29 23  L 0 23  L 0 0  L 2 0  L 2 21  Z M 16 7.66666666666667  L 20 7.66666666666667  L 20 19.1666666666667  L 16 19.1666666666667  L 16 7.66666666666667  Z M 21.75 1.91666666666667  L 25 1.91666666666667  L 25 19.1666666666667  L 21.75 19.1666666666667  L 21.75 1.91666666666667  Z " fill-rule="nonzero" fill="#000000" stroke="none" transform="matrix(1 0 0 1 223 872 )" />
  </g>
</svg>