<?xml version="1.0" encoding="utf-8"?>
<svg version="1.1" xmlns:xlink="http://www.w3.org/1999/xlink" width="49px" height="22px" xmlns="http://www.w3.org/2000/svg">
  <g transform="matrix(1 0 0 1 -152 -982 )">
    <path d="M 48.7447916666667 7.5812743823147  C 48.9149305555556 7.75292587776333  49 7.97225834416992  49 8.23927178153446  L 49 13.7321196358908  C 49 13.9991330732553  48.9149305555556 14.2184655396619  48.7447916666667 14.3901170351105  C 48.5746527777778 14.5617685305592  48.3572530864198 14.6475942782835  48.0925925925926 14.6475942782835  L 12.7037037037037 14.6475942782835  L 12.7037037037037 21.0559167750325  C 12.7037037037037 21.4564369310793  12.524112654321 21.7329865626355  12.1649305555556 21.8855656697009  C 11.8057484567901 22.0381447767664  11.4749228395062 21.9904638058084  11.1724537037037 21.742522756827  L 0.283564814814815 11.7295188556567  C 0.0945216049382719 11.5387949718249  0 11.3194625054183  0 11.0715214564369  C 0 10.8045080190724  0.0945216049382719 10.5756393584742  0.283564814814815 10.3849154746424  L 11.1724537037037 0.257477243172952  C 11.4749228395062 -0.00953619419159635  11.8057484567901 -0.0667533593411402  12.1649305555556 0.0858257477243183  C 12.524112654321 0.257477243172952  12.7037037037037 0.534026874729085  12.7037037037037 0.915474642392717  L 12.7037037037037 7.32379713914174  L 48.0925925925926 7.32379713914174  C 48.3572530864198 7.32379713914174  48.5746527777778 7.40962288686606  48.7447916666667 7.5812743823147  Z " fill-rule="nonzero" fill="#d9001b" stroke="none" transform="matrix(1 0 0 1 152 982 )" />
  </g>
</svg>