<?xml version="1.0" encoding="utf-8"?>
<svg version="1.1" xmlns:xlink="http://www.w3.org/1999/xlink" width="267px" height="48px" xmlns="http://www.w3.org/2000/svg">
  <defs>
    <mask fill="white" id="clip34">
      <path d="M 0 47  L 0 0  L 266 0  L 266 47  L 147.37538205057 47  L 0 47  Z " fill-rule="evenodd" />
    </mask>
  </defs>
  <g transform="matrix(1 0 0 1 -1654 -45 )">
    <path d="M 0 47  L 0 0  L 266 0  L 266 47  L 147.37538205057 47  L 0 47  Z M 2.97152317635414 46.4749564312457  L 263.028476823646 0.525043568754317  L 162.612690126615 18.2676825716132  L 2.97152317635414 46.4749564312457  Z " fill-rule="nonzero" fill="#d7d7d7" stroke="none" transform="matrix(1 0 0 1 1654 45 )" />
    <path d="M 0 47  L 0 0  L 266 0  L 266 47  L 147.37538205057 47  L 0 47  Z " stroke-width="2" stroke="#797979" fill="none" transform="matrix(1 0 0 1 1654 45 )" mask="url(#clip34)" />
    <path d="M 263.028476823646 0.525043568754317  L 162.612690126615 18.2676825716132  L 2.97152317635414 46.4749564312457  M 2.97152317635414 0.525043568754317  L 263.028476823646 46.4749564312457  " stroke-width="1" stroke="#797979" fill="none" transform="matrix(1 0 0 1 1654 45 )" mask="url(#clip34)" />
  </g>
</svg>