<?xml version="1.0" encoding="utf-8"?>
<svg version="1.1" xmlns:xlink="http://www.w3.org/1999/xlink" width="22px" height="309px" xmlns="http://www.w3.org/2000/svg">
  <g transform="matrix(1 0 0 1 -1561 -24 )">
    <path d="M 21.0571428571429 228.888888888889  C 21.4571428571429 228.888888888889  21.7333333333333 230.021412037037  21.8857142857143 232.286458333333  C 22.0380952380952 234.55150462963  21.9904761904762 236.637731481481  21.7428571428571 238.545138888889  L 11.7428571428571 307.211805555556  C 11.552380952381 308.403935185185  11.3333333333333 309  11.0857142857143 309  C 10.8190476190476 309  10.5904761904762 308.403935185185  10.4 307.211805555556  L 0.257142857142857 238.545138888889  C 0.0095238095238095 236.637731481481  -0.0380952380952381 234.55150462963  0.114285714285714 232.286458333333  C 0.285714285714286 230.021412037037  0.561904761904762 228.888888888889  0.942857142857143 228.888888888889  L 7.34285714285714 228.888888888889  L 7.34285714285714 5.72222222222221  C 7.34285714285714 4.05324074074071  7.42857142857143 2.68229166666667  7.6 1.60937500000001  C 7.77142857142857 0.536458333333349  7.99047619047619 0  8.25714285714286 0  L 13.7428571428571 0  C 14.0095238095238 0  14.2285714285714 0.536458333333349  14.4 1.60937500000001  C 14.5714285714286 2.68229166666667  14.6571428571429 4.05324074074071  14.6571428571429 5.72222222222221  L 14.6571428571429 228.888888888889  L 21.0571428571429 228.888888888889  Z " fill-rule="nonzero" fill="#d9001b" stroke="none" transform="matrix(1 0 0 1 1561 24 )" />
  </g>
</svg>